<svg width="171" height="33" viewBox="0 0 171 33" fill="none" xmlns="http://www.w3.org/2000/svg">
<path d="M21.8333 18.7292C21.8333 21.8854 21.3594 24.4531 20.4167 26.4375C19.4844 28.4115 18.1979 29.8646 16.5625 30.7917C14.9375 31.7083 13.0521 32.1667 10.9167 32.1667C8.79167 32.1667 6.90625 31.7083 5.27083 30.7917C3.63021 29.8646 2.33854 28.4115 1.39583 26.4375C0.463541 24.4531 0 21.8854 0 18.7292V13.4375C0 10.2604 0.463541 7.6875 1.39583 5.72917C2.33854 3.76042 3.63021 2.3125 5.27083 1.39583C6.90625 0.468749 8.79167 0 10.9167 0C13.0521 0 14.9375 0.468749 16.5625 1.39583C18.1979 2.3125 19.4844 3.76042 20.4167 5.72917C21.3594 7.6875 21.8333 10.2604 21.8333 13.4375V18.7292ZM19.9583 18.7292V13.4375C19.9583 10.5365 19.5625 8.23958 18.7708 6.54167C17.9792 4.83333 16.901 3.61979 15.5417 2.89583C14.1927 2.16146 12.651 1.79167 10.9167 1.79167C9.20833 1.79167 7.67188 2.16146 6.3125 2.89583C4.94792 3.61979 3.86458 4.83333 3.0625 6.54167C2.27083 8.23958 1.875 10.5365 1.875 13.4375V18.7292C1.875 21.6354 2.27083 23.9323 3.0625 25.625C3.86458 27.3229 4.94792 28.5365 6.3125 29.2708C7.67188 30.0104 9.20833 30.375 10.9167 30.375C12.651 30.375 14.1927 30.0104 15.5417 29.2708C16.901 28.5365 17.9792 27.3229 18.7708 25.625C19.5625 23.9323 19.9583 21.6354 19.9583 18.7292Z" fill="white"/>
<path d="M60.5712 30.6875C60.7483 30.9688 60.8056 31.2448 60.7379 31.5208C60.6806 31.7865 60.4722 31.9167 60.1129 31.9167H59.5504C59.4358 31.9167 59.3212 31.875 59.1962 31.7917C59.0712 31.7083 58.9722 31.625 58.9045 31.5417L49.8212 17.625C49.4306 17.6563 49.1181 17.6615 48.8837 17.6458C48.6597 17.6354 48.3629 17.625 47.9879 17.625C47.5556 17.625 47.0347 17.625 46.4254 17.625C45.8108 17.625 45.2066 17.6198 44.6129 17.6042C44.0139 17.5938 43.5087 17.5833 43.092 17.5833C42.6858 17.5833 42.4879 17.5833 42.4879 17.5833V31.1042C42.4879 31.3021 42.4254 31.4896 42.3004 31.6667C42.1754 31.8333 41.9931 31.9167 41.7587 31.9167H41.342C41.1337 31.9167 40.9566 31.8333 40.8212 31.6667C40.6806 31.4896 40.6129 31.3021 40.6129 31.1042V0.979167C40.6129 0.786459 40.6806 0.614584 40.8212 0.458333C40.9566 0.291667 41.1337 0.197917 41.342 0.166667C41.8524 0.140625 42.5139 0.114584 43.3212 0.0833333C44.1233 0.057292 44.9514 0.0364587 45.8004 0.0208333C46.6597 0.010416 47.3889 0 47.9879 0C51.8316 0 54.7274 0.635416 56.6754 1.89583C58.6181 3.16146 59.592 5.43229 59.592 8.70833V8.91667C59.592 11.5 58.9514 13.4583 57.6754 14.7917C56.3941 16.1146 54.4931 16.9896 51.967 17.4167L60.5712 30.6875ZM57.717 8.91667V8.70833C57.717 6.03125 56.8889 4.20833 55.2379 3.25C53.5972 2.28125 51.1806 1.79167 47.9879 1.79167C47.1129 1.79167 46.1389 1.80729 45.0712 1.83333C43.9983 1.86458 43.1389 1.90625 42.4879 1.95833V15.7917C42.8889 15.7917 43.4462 15.7917 44.1545 15.7917C44.8629 15.7917 45.5764 15.8021 46.3004 15.8125C47.0191 15.8281 47.5816 15.8333 47.9879 15.8333C50.2066 15.8333 52.0347 15.6406 53.467 15.25C54.9097 14.849 55.9774 14.1458 56.6754 13.1458C57.3681 12.1458 57.717 10.7396 57.717 8.91667Z" fill="white"/>
<path d="M97.0879 0.81251C97.0879 0.979177 97.0306 1.16668 96.9212 1.37501L88.1712 18.6875V31.1042C88.1712 31.3021 88.1087 31.4896 87.9837 31.6667C87.8587 31.8333 87.6764 31.9167 87.442 31.9167H87.0254C86.8275 31.9167 86.6556 31.8333 86.5045 31.6667C86.3639 31.4896 86.2962 31.3021 86.2962 31.1042V18.6875L77.5462 1.37501C77.4316 1.16668 77.3795 0.979177 77.3795 0.81251C77.3795 0.411469 77.6348 0.208344 78.1504 0.208344H78.6295C78.8483 0.208344 79.0045 0.265636 79.0879 0.37501C79.1712 0.473969 79.2389 0.59376 79.2962 0.729177L87.2337 16.6458L95.1712 0.729177C95.2233 0.59376 95.3014 0.473969 95.4004 0.37501C95.5098 0.265636 95.6608 0.208344 95.8587 0.208344H96.317C96.8275 0.208344 97.0879 0.411469 97.0879 0.81251Z" fill="white"/>
<path d="M132.204 31.1875C132.204 31.6771 131.933 31.9167 131.391 31.9167H120.391C118.766 31.9167 117.496 31.5729 116.579 30.875C115.673 30.1823 115.225 28.9375 115.225 27.1458V5.00001C115.225 3.20834 115.673 1.96876 116.579 1.27084C117.496 0.56251 118.766 0.208344 120.391 0.208344H131.391C131.933 0.208344 132.204 0.453135 132.204 0.93751V1.29168C132.204 1.73959 131.933 1.95834 131.391 1.95834H120.391C119.36 1.95834 118.558 2.13543 117.975 2.47918C117.391 2.81251 117.1 3.65626 117.1 5.00001V14.375H131.391C131.933 14.375 132.204 14.6042 132.204 15.0625V15.5C132.204 15.974 131.933 16.2083 131.391 16.2083H117.1V27.1458C117.1 28.4531 117.391 29.2865 117.975 29.6458C118.558 29.9948 119.36 30.1667 120.391 30.1667H131.391C131.933 30.1667 132.204 30.3958 132.204 30.8542V31.1875Z" fill="white"/>
<path d="M170.99 31.1042C170.99 31.3021 170.917 31.4896 170.781 31.6667C170.656 31.8333 170.479 31.9167 170.26 31.9167H169.823C169.625 31.9167 169.453 31.8333 169.302 31.6667C169.161 31.4896 169.094 31.3021 169.094 31.1042V11.2708C169.094 8.05208 168.516 5.65625 167.365 4.08333C166.224 2.5 164.161 1.70833 161.177 1.70833C159.521 1.70833 157.891 1.77083 156.281 1.89583C154.667 2.02083 153.453 2.13542 152.635 2.22917V31.1042C152.635 31.3021 152.557 31.4896 152.406 31.6667C152.266 31.8333 152.083 31.9167 151.865 31.9167H151.49C151.25 31.9167 151.073 31.8333 150.948 31.6667C150.823 31.4896 150.76 31.3021 150.76 31.1042V1.5C150.76 1.04167 150.958 0.786459 151.365 0.729167C152.615 0.5625 154.135 0.406251 155.927 0.25C157.719 0.0833333 159.469 0 161.177 0C164.635 0 167.135 0.979167 168.677 2.9375C170.219 4.88542 170.99 7.66146 170.99 11.2708V31.1042Z" fill="white"/>
</svg>
